<?xml version="1.0" encoding="utf-8"?>
<!-- Generator: Adobe Illustrator 19.0.0, SVG Export Plug-In . SVG Version: 6.00 Build 0)  -->
<svg version="1.0" id="레이어_1" xmlns="http://www.w3.org/2000/svg" xmlns:xlink="http://www.w3.org/1999/xlink" x="0px"
	 y="0px" viewBox="0 0 419.5 260.3" style="enable-background:new 0 0 419.5 260.3;" xml:space="preserve">
<style type="text/css">
	.st0{fill:#FF4C83;}
</style>
<g>
	<path class="st0" d="M0.3,113c0.2-0.3,0.4-0.6,0.6-0.8L124.4,0.3c0.3-0.3,0.7-0.4,1.1-0.3l129.4,59.3c0.7,0.3,0.9,1.5,0.6,2.7
		l-43.5,148.5c-0.1,0.2-0.1,0.3-0.2,0.5c-0.3,0.6-0.7,1.1-1.2,1.2L54.3,244.6c-0.4,0.1-0.8-0.2-1-0.7L0.2,115.5
		c-0.2-0.5-0.2-1.1-0.1-1.8C0.2,113.5,0.2,113.2,0.3,113z M252.3,63.1L124.6,4.6L3.3,114.4l51.9,125.6L209.9,208L252.3,63.1z"/>
</g>
<g>
	<path class="st0" d="M228.1,124.3l0.7,103.9h-7.4l-57.8,0.5c-15.6,0.3-27-1.9-34.1-6.7c-7.1-4.8-10.8-11.8-10.9-21.1l-0.7-108.6
		c-0.2-11.8,2.5-20.4,7.9-25.9c5.4-5.5,14.9-8.2,28.5-8.2h66.3v16.2h-58.5c-5.4,0-9,1.5-10.7,4.6c-1.7,3.1-2.6,6.8-2.6,11.1l1.2,110
		c0,3.6,0.8,6.5,2.3,8.7c1.5,2.2,4.8,3.4,9.7,3.4h35.5l-0.5-87.9H172v-16.5H245v16.5H228.1z"/>
	<path class="st0" d="M278,58.6l52,170.3h-30.6l-9.5-34.3h-58.5l-10.4,34.1h-30.2l59.2-170H278z M236.7,177.4h48.5l-22.7-82.6
		L236.7,177.4z"/>
	<path class="st0" d="M360.3,74.4c-5.4,0-9,1.5-10.7,4.6c-1.7,3.1-2.6,6.8-2.6,11.1l1.2,110c0,3.6,0.8,6.5,2.3,8.7
		c1.5,2.2,4.8,3.4,9.7,3.4h59.2v16l-57.8,0.5c-15.6,0.3-27-1.9-34.1-6.7c-7.1-4.8-10.8-11.8-10.9-21.1L316,92.3
		c-0.2-11.8,2.5-20.4,7.9-25.9c5.4-5.5,14.9-8.2,28.5-8.2h66.3v16.2H360.3z"/>
</g>
<g>
	<path class="st0" d="M118.5,259.8l0-3.4c-0.7,1.2-1.7,2.2-3,2.9c-1.3,0.7-2.6,1-4,1c-2.6,0-4.7-1-6.3-2.9c-1.5-1.9-2.3-4.4-2.3-7.3
		c0-2.9,0.8-5.4,2.3-7.3c1.6-1.9,3.6-2.9,6.2-2.9c2.5,0,4.4,0.7,5.7,2.2c1.3,1.5,2.1,2.8,2.4,3.8l-1.3,0c-0.4-1.1-1.1-2.1-2.3-3.2
		c-1.1-1.1-2.7-1.6-4.6-1.6c-2.1,0-3.9,0.9-5.2,2.6c-1.4,1.7-2,3.9-2,6.5c0,2.6,0.7,4.7,2,6.4c1.4,1.7,3.1,2.5,5.2,2.5
		c2.3,0,4.1-0.7,5.3-2.1c1.2-1.4,1.8-2.8,1.8-4.3v-1.6h-6.7v-1h7.8v9.6H118.5z"/>
	<path class="st0" d="M122.7,259.8v-19.3h1.2l0,19.3H122.7z"/>
	<path class="st0" d="M143.9,259.8l0-17.4l-6.9,17.3h-1.4l-6.9-17.2v17.3h-1.2v-19.4h1.7l7.2,18l7.2-18h1.7v19.4H143.9z"/>
	<path class="st0" d="M161.4,242c1.2,1,1.9,2.5,1.9,4.2c0,1.7-0.6,3.1-1.9,4.1c-1.2,1-2.8,1.5-4.7,1.5h-6.9v8h-1.2v-19.3h8.1
		C158.6,240.4,160.2,241,161.4,242z M160.4,249.6c1-0.7,1.5-1.9,1.5-3.4c0-1.6-0.5-2.8-1.5-3.6c-1-0.8-2.2-1.2-3.6-1.2h-7v9.3h7
		C158.2,250.7,159.4,250.3,160.4,249.6z"/>
	<path class="st0" d="M179.6,242.8c1.6,1.9,2.4,4.4,2.4,7.3c0,2.9-0.8,5.4-2.4,7.3c-1.6,1.9-3.7,2.9-6.3,2.9c-2.6,0-4.7-1-6.3-2.9
		c-1.6-1.9-2.4-4.4-2.4-7.3c0-2.9,0.8-5.4,2.4-7.3c1.6-1.9,3.7-2.9,6.3-2.9C175.9,239.9,178,240.9,179.6,242.8z M178.6,256.5
		c1.4-1.7,2-3.9,2-6.4c0-2.6-0.7-4.7-2-6.4c-1.4-1.7-3.1-2.6-5.3-2.6c-2.2,0-4,0.9-5.3,2.6c-1.3,1.7-2,3.9-2,6.4
		c0,2.6,0.7,4.7,2,6.4c1.3,1.7,3.1,2.6,5.3,2.6C175.5,259.1,177.2,258.3,178.6,256.5z"/>
	<path class="st0" d="M209.2,259.8l-2.4-5.7h-10.7l-2.5,5.6h-1.3l8.4-19.4h1.3l8.4,19.4H209.2z M201.4,241.8l-4.9,11.3h9.8
		L201.4,241.8z"/>
	<path class="st0" d="M225.4,253.7c0,1.9-0.6,3.4-1.9,4.7c-1.3,1.3-3.1,1.9-5.4,1.9c-2.3,0-4.1-0.6-5.4-1.9
		c-1.3-1.3-1.9-2.8-1.9-4.7l0-13.3h1.2v13c0,1.8,0.5,3.2,1.6,4.2c1.1,1,2.6,1.5,4.4,1.5c1.9,0,3.3-0.5,4.4-1.5s1.6-2.4,1.6-4.2l0-13
		h1.3V253.7z"/>
	<path class="st0" d="M241.6,243.2c1.7,1.9,2.5,4.2,2.5,6.9c0,2.7-0.8,5-2.5,6.9c-1.7,1.9-3.9,2.8-6.6,2.8h-6.3v-19.3h6.3
		C237.7,240.4,240,241.3,241.6,243.2z M240.7,256.1c1.4-1.8,2.1-3.8,2.1-6c0-2.4-0.7-4.5-2.1-6.1c-1.4-1.7-3.3-2.5-5.9-2.5h-4.8
		v17.3h4.8C237.3,258.8,239.3,257.9,240.7,256.1z"/>
	<path class="st0" d="M246.8,259.8v-19.3h1.2l0,19.3H246.8z"/>
	<path class="st0" d="M257.9,241.5v18.5h-1.3l0-18.5h-6.9v-1h15v1H257.9z"/>
	<path class="st0" d="M266.5,259.8v-19.3h1.2l0,19.3H266.5z"/>
	<path class="st0" d="M285.3,242.8c1.6,1.9,2.4,4.4,2.4,7.3c0,2.9-0.8,5.4-2.4,7.3c-1.6,1.9-3.7,2.9-6.3,2.9c-2.6,0-4.7-1-6.3-2.9
		c-1.6-1.9-2.4-4.4-2.4-7.3c0-2.9,0.8-5.4,2.4-7.3c1.6-1.9,3.7-2.9,6.3-2.9C281.6,239.9,283.7,240.9,285.3,242.8z M284.3,256.5
		c1.4-1.7,2-3.9,2-6.4c0-2.6-0.7-4.7-2-6.4c-1.4-1.7-3.1-2.6-5.3-2.6c-2.2,0-4,0.9-5.3,2.6c-1.3,1.7-2,3.9-2,6.4
		c0,2.6,0.7,4.7,2,6.4c1.3,1.7,3.1,2.6,5.3,2.6C281.2,259.1,282.9,258.3,284.3,256.5z"/>
	<path class="st0" d="M303.8,259.8L291.6,242v17.7l-1.3,0v-19.3h1.4l12.2,17.7v-17.7h1.2v19.3L303.8,259.8z"/>
	<path class="st0" d="M333.1,245.9c-0.3-1-1-2.1-2.1-3.2c-1.1-1.1-2.7-1.7-4.7-1.7c-2.1,0-3.9,0.9-5.2,2.6c-1.3,1.7-2,3.9-2,6.4
		c0,2.6,0.7,4.7,2,6.4c1.3,1.7,3.1,2.6,5.3,2.6c2,0,3.6-0.6,4.7-1.7c1.1-1.1,1.8-2.2,2-3.2l1.2,0c-0.2,1-1,2.3-2.2,3.8
		c-1.2,1.5-3.1,2.2-5.7,2.2c-2.6,0-4.7-1-6.3-2.9c-1.6-1.9-2.3-4.4-2.3-7.3c0-2.9,0.8-5.4,2.3-7.3c1.6-1.9,3.6-2.9,6.3-2.9
		c2.5,0,4.4,0.7,5.7,2.2c1.3,1.5,2.1,2.7,2.4,3.8L333.1,245.9z"/>
	<path class="st0" d="M336.6,259.7v-19.3h13.6v1h-12.3v7.8h11.9v1h-11.9v8.5l12.6,0v1L336.6,259.7z"/>
	<path class="st0" d="M366.4,259.8L354.2,242v17.7l-1.3,0v-19.3h1.4l12.2,17.7v-17.7h1.2v19.3L366.4,259.8z"/>
	<path class="st0" d="M377.8,241.5v18.5h-1.3l0-18.5h-6.9v-1h15v1H377.8z"/>
	<path class="st0" d="M386.4,259.7v-19.3h13.6v1h-12.3v7.8h11.9v1h-11.9v8.5l12.6,0v1L386.4,259.7z"/>
	<path class="st0" d="M417.1,259.8l-5.5-8.2h-7.8v8.2l-1.2,0v-19.3h8.5c1.9,0,3.5,0.5,4.6,1.6c1.1,1.1,1.7,2.4,1.7,3.9
		c0,1.4-0.5,2.6-1.5,3.6c-1,1-2,1.6-3.1,1.8l5.6,8.4H417.1z M414.5,249.4c1.1-0.7,1.6-1.9,1.6-3.5c0-1.6-0.5-2.8-1.6-3.5
		c-1.1-0.7-2.3-1-3.5-1h-7.1v9.1h7.1C412.3,250.5,413.5,250.2,414.5,249.4z"/>
</g>
</svg>
